# xmcd CD database file
#
# Track frame offsets:
#	150
#	12720
#	22755
#	35055
#	47750
#	63050
#	74680
#	87240
#	99830
#	114545
#	128505
#	143510
#	155120
#	170660
#	184190
#	197945
#	211960
#	226845
#
# Disc length: 3193 seconds
#
# Revision: 1
# Processed by: cddbd v1.5.2PL0 Copyright (c) Steve Scherf et al.
# Submitted via: CDex 1.51
#
DISCID=f60c7712
DTITLE=Erroll Garner - Piano Bar in the Erroll Garner Mood
DYEAR=1998
DGENRE=Jazz
TTITLE0=Stardust    (1945)
TTITLE1=Lady Be Good    (1945)
TTITLE2=Laura    (1945)
TTITLE3=Always    (1945)
TTITLE4=All The Things You Are
TTITLE5=I've Got You Under My Skin    (1945)
TTITLE6=Sometimes I am Happy    (1945)
TTITLE7=My Heart Stood Still    (1945)
TTITLE8=Lover Come Back To Me    (1945)
TTITLE9=Symphony    (1945)
TTITLE10=I Can't Get Started With You    (1945)
TTITLE11=High Octane    (1945)
TTITLE12=Erroll's Blues    (1947)
TTITLE13=Erroll's Bounce    (1947)
TTITLE14=Stairway To The Stars    (1947)
TTITLE15=I Can't Escape From You    (1947)
TTITLE16=Don't Worry 'Bout Me    (1947)
TTITLE17=Love For Sale    (1947)
EXTD=YEAR: 1998
EXTT0=
EXTT1=
EXTT2=
EXTT3=
EXTT4=
EXTT5=
EXTT6=
EXTT7=
EXTT8=
EXTT9=
EXTT10=
EXTT11=
EXTT12=
EXTT13=
EXTT14=
EXTT15=
EXTT16=
EXTT17=
PLAYORDER=
